<svg version="1" xmlns="http://www.w3.org/2000/svg" width="1600" height="1600" viewBox="0 0 1200.000000 1200.000000"><path d="M580 121.6c-12.4 2-13.4 2.3-22.8 5.3-32.9 10.8-60.6 34-77.9 65.1-6.7 12.2-13.4 32.3-15.1 45.7-.9 7.6-.9 32.3.1 39.1 5.1 35.5 24.7 68.3 53.9 90.2 16.8 12.7 40.3 22.7 59.5 25.4 2.1.3 5.6.8 7.8 1.2 12.4 1.7 33.4.1 48.3-3.7 49-12.5 86.1-49.7 99.2-99.6 2.9-11 3.5-17.1 3.5-33.8 0-13.6-.3-17.5-2-25.5-.2-1.4-.7-3.9-1.1-5.5-2.5-12.6-11.7-33.3-20.7-46.5-7-10.3-25.3-28.3-35.7-35.2-18.1-12-31.5-17.3-56.5-22.4-5.9-1.2-33-1.1-40.5.2zM927.9 463.4c-.2.2-2.4.7-4.9 1-5.9.8-10.1 1.6-12.2 2.2-.9.3-2.5.7-3.5.9-8.1 1.7-25.9 9.4-35.8 15.5-40.6 24.9-65.3 68.4-65.6 115.5-.1 8.1 1 23.5 1.7 24.6.2.4.6 2.4 1 4.5 1.1 7.9 5.8 21.2 11.4 33 12.5 25.7 34.6 48.2 60.3 61.3 13.5 6.8 22.2 9.7 41.2 13.7 5 1 32.6 1.4 38 .5 2.8-.5 7.2-1.2 9.8-1.5 15-2 46.4-16.3 57.4-26 .7-.6 3.6-3.1 6.5-5.6 21.9-18.5 40.6-51.4 44.5-78.5.2-1.7.7-3.7 1-4.5 1-2.6 1.2-32.4.2-37.5-.5-2.8-1.1-6.5-1.4-8.3-2-15.6-13.1-40.5-25-56.3-14.7-19.6-33.5-34.1-58.5-45.2-4.2-1.9-19.1-6.3-24-7.1-1.9-.3-4.6-.9-6-1.2-2.6-.7-35.5-1.5-36.1-1zM247 806.1c-10.4 1-15.7 1.8-20.5 3-2.2.6-4.7 1.2-5.5 1.4-3.1.6-14.8 4.9-21 7.7-21.3 9.7-43.1 27.9-54.9 45.8-2 3-3.9 5.7-4.3 6-1.3 1-10.6 20.6-13.1 27.6-5.3 14.9-7.1 26.4-7.1 45.4.1 14 .5 19.4 2.2 27.2 3 13.8 6.6 23.7 12.9 35.8 19.6 37.5 53.8 63.1 95.8 71.5 9.5 1.9 32.7 2.6 44 1.3 7.2-.8 23.2-4.9 30.6-7.8 9.3-3.7 25-12.1 30.4-16.2.6-.5 2.8-2.2 5-3.9 5.7-4.4 16.3-14.6 21.1-20.4 4.3-5.3 11.4-15.1 11.4-16 0-.2 1.3-2.5 3-5.1 5-7.9 12.7-28.4 14.3-38.1 2.4-13.8 2.8-18.1 2.8-27.3 0-13.1-.7-20.3-3.2-30.5-1.1-4.4-2.2-9.1-2.5-10.5-.9-4.2-7.8-20.2-11.7-27.2-12.9-23.1-33.5-42.8-57.7-55.2-18.6-9.5-35.2-13.6-61-14.9-1.9-.1-6.9.1-11 .4zM599.7 805.6c-.1.1-4.5.4-9.7.7-5.2.4-10.6.9-12 1.2-1.4.3-3.8.8-5.5 1-28 5-59.5 24-78.6 47.5-13.1 16-23.6 37.8-27.8 57.5-.6 2.7-1.4 6.3-1.7 8-1.3 6.3-1.2 35 .2 43 2 11.7 5.7 23.8 10.4 34.5 11.4 26 34.5 50.7 61 65.2 11.4 6.3 31 12.6 45.3 14.5 10.5 1.5 36.8.8 45.2-1.1 12.3-2.8 24.6-7 33-11.3 7.3-3.7 18.6-10.3 19.5-11.3.3-.3 2.8-2.2 5.5-4.2 6.1-4.4 19.5-18.2 25.6-26.3 13-17.2 22.6-40.4 25.6-61.8 1.5-10.7.8-40.1-1.2-46.7-.2-.8-.6-2.7-.9-4.2-1.5-8.5-9.1-27.5-15.2-37.8-19-32.2-49.5-55.2-84.8-63.9-8.6-2.2-10.8-2.6-19.6-3.6-5-.6-13.9-1.2-14.3-.9zM942.7 805.6c-.1.1-4.5.4-9.7.7-21.3 1.3-41.8 7.8-61.5 19.5-3.3 2-7.2 4.5-8.7 5.6-1.4 1.2-4.1 3.2-5.8 4.6-9.1 6.9-20.7 19.7-28.2 31-40.2 61-26.5 141.3 31.7 185.4 24.6 18.7 53.8 27.9 86 27.1 16.7-.4 24.9-1.8 41.5-7.1 15.1-4.9 37.5-18.7 50.3-31.2 18.8-18.3 33.7-45 38.6-69.3.6-3 1.3-6.8 1.7-8.4 1.5-7.6 1.2-33.1-.6-43.5-3.9-22.4-14.4-46-27.7-62.5-3.9-4.8-17-18.1-20.4-20.6-1.7-1.3-4.3-3.3-5.7-4.5-4.7-3.6-17.5-11.2-24.2-14.2-10.7-4.9-20.2-7.8-35-10.7-3.7-.7-21.8-2.3-22.3-1.9z"/></svg>